<svg width="14" height="14" viewBox="0 0 14 14" fill="none" xmlns="http://www.w3.org/2000/svg">
<path fill-rule="evenodd" clip-rule="evenodd" d="M9.38001 8.88913C9.44009 8.82465 9.51254 8.77293 9.59304 8.73707C9.67354 8.7012 9.76044 8.68191 9.84855 8.68036C9.93667 8.6788 10.0242 8.69501 10.1059 8.72802C10.1876 8.76102 10.2618 8.81015 10.3242 8.87247C10.3865 8.93478 10.4356 9.00901 10.4686 9.09073C10.5016 9.17244 10.5178 9.25997 10.5163 9.34808C10.5147 9.4362 10.4954 9.5231 10.4596 9.6036C10.4237 9.6841 10.372 9.75655 10.3075 9.81662L7.46376 12.6604L7.00001 13.125L6.53626 12.6613L3.69251 9.8175C3.57291 9.69379 3.50668 9.52805 3.50809 9.35598C3.50951 9.18391 3.57845 9.01928 3.70006 8.89755C3.82168 8.77582 3.98625 8.70672 4.15831 8.70515C4.33038 8.70357 4.49618 8.76964 4.62001 8.88913L6.34376 10.6129V1.53125C6.34376 1.3572 6.4129 1.19028 6.53597 1.06721C6.65904 0.94414 6.82596 0.875 7.00001 0.875C7.17406 0.875 7.34097 0.94414 7.46405 1.06721C7.58712 1.19028 7.65626 1.3572 7.65626 1.53125V10.6129L9.38001 8.88913Z" fill="white"/>
</svg>
