<svg width="14" height="14" viewBox="0 0 14 14" fill="none" xmlns="http://www.w3.org/2000/svg">
<path fill-rule="evenodd" clip-rule="evenodd" d="M9.38 5.11088C9.44008 5.17535 9.51253 5.22707 9.59303 5.26293C9.67353 5.2988 9.76043 5.31809 9.84854 5.31964C9.93666 5.3212 10.0242 5.30499 10.1059 5.27198C10.1876 5.23898 10.2618 5.18985 10.3242 5.12753C10.3865 5.06522 10.4356 4.99099 10.4686 4.90927C10.5016 4.82756 10.5178 4.74003 10.5163 4.65192C10.5147 4.5638 10.4954 4.4769 10.4596 4.3964C10.4237 4.3159 10.372 4.24345 10.3075 4.18338L7.46375 1.33875L7 0.875L6.53625 1.33875L3.6925 4.1825C3.5729 4.30621 3.50667 4.47195 3.50809 4.64402C3.5095 4.81609 3.57844 4.98072 3.70006 5.10245C3.82167 5.22418 3.98624 5.29328 4.1583 5.29485C4.33037 5.29643 4.49617 5.23036 4.62 5.11088L6.34375 3.38713V12.4688C6.34375 12.6428 6.41289 12.8097 6.53596 12.9328C6.65903 13.0559 6.82595 13.125 7 13.125C7.17405 13.125 7.34097 13.0559 7.46404 12.9328C7.58711 12.8097 7.65625 12.6428 7.65625 12.4688V3.38713L9.38 5.11088Z" fill="white"/>
</svg>
