<svg width="24" height="24" viewBox="0 0 24 24" fill="none" xmlns="http://www.w3.org/2000/svg">
<path d="M19.5 9C18.727 9.0206 17.9773 8.73408 17.415 8.20316C16.8527 7.67225 16.5237 6.94019 16.5 6.16725C16.514 5.61538 16.6838 5.07873 16.9897 4.61925L18.8775 1.8105C18.95 1.71392 19.044 1.63555 19.1521 1.58157C19.2601 1.5276 19.3792 1.4995 19.5 1.4995C19.6208 1.4995 19.7399 1.5276 19.8479 1.58157C19.956 1.63555 20.05 1.71392 20.1225 1.8105L21.9863 4.5825C22.3048 5.0511 22.483 5.60087 22.5 6.16725C22.4763 6.94019 22.1473 7.67225 21.585 8.20316C21.0227 8.73408 20.273 9.0206 19.5 9ZM19.5 3.57225L18.258 5.4195C18.1028 5.63922 18.0133 5.89856 18 6.16725C18.0435 6.5345 18.2203 6.87302 18.4967 7.11865C18.7732 7.36428 19.1302 7.49995 19.5 7.49995C19.8698 7.49995 20.2268 7.36428 20.5033 7.11865C20.7797 6.87302 20.9565 6.5345 21 6.16725C20.9832 5.884 20.8856 5.6115 20.7188 5.382L19.5 3.57225ZM17.625 22.5H6.375C5.16679 22.5013 4.0012 22.0536 3.10451 21.2438C2.20782 20.4341 1.64399 19.32 1.52249 18.1179C1.401 16.9158 1.73049 15.7115 2.44701 14.7387C3.16354 13.7659 4.21597 13.094 5.4 12.8535C5.71958 11.3398 6.54975 9.98202 7.75135 9.00763C8.95295 8.03323 10.453 7.50147 12 7.50147C13.547 7.50147 15.047 8.03323 16.2487 9.00763C17.4503 9.98202 18.2804 11.3398 18.6 12.8535C19.784 13.094 20.8365 13.7659 21.553 14.7387C22.2695 15.7115 22.599 16.9158 22.4775 18.1179C22.356 19.32 21.7922 20.4341 20.8955 21.2438C19.9988 22.0536 18.8332 22.5013 17.625 22.5ZM12 9C10.7195 9.0012 9.48362 9.47034 8.52488 10.3191C7.56613 11.1679 6.95065 12.3379 6.79425 13.6087L6.71925 14.2177L6.108 14.2657C5.23744 14.332 4.42652 14.7334 3.84586 15.3854C3.2652 16.0374 2.96006 16.8892 2.99465 17.7616C3.02924 18.634 3.40086 19.459 4.03132 20.063C4.66177 20.6669 5.50192 21.0028 6.375 21H17.625C18.4981 21.0028 19.3382 20.6669 19.9687 20.063C20.5991 19.459 20.9708 18.634 21.0053 17.7616C21.0399 16.8892 20.7348 16.0374 20.1541 15.3854C19.5735 14.7334 18.7626 14.332 17.892 14.2657L17.2808 14.2177L17.2065 13.6087C17.0498 12.3379 16.4341 11.168 15.4753 10.3193C14.5164 9.47051 13.2805 9.00134 12 9Z" fill="#3582F5"/>
</svg>
