<svg width="18" height="16" viewBox="0 0 18 16" fill="none" xmlns="http://www.w3.org/2000/svg">
<path d="M1.50915e-06 4.44445V1.77778C1.50915e-06 1.28889 0.174224 0.870223 0.522668 0.521779C0.871113 0.173335 1.28948 -0.000591083 1.77778 1.50915e-06H16C16.4889 1.50915e-06 16.9076 0.174224 17.256 0.522668C17.6044 0.871112 17.7784 1.28948 17.7778 1.77778V6.66667H16V1.77778H1.77778V4.44445H1.50915e-06ZM4.44445 11.5556C4.28148 11.5556 4.12593 11.5147 3.97778 11.4329C3.82963 11.3511 3.71852 11.229 3.64445 11.0667L2.11111 8H1.50915e-06V6.22222H2.66667C2.82963 6.22222 2.98519 6.26311 3.13333 6.34489C3.28148 6.42667 3.39259 6.54874 3.46667 6.71111L4.44445 8.66667L7.2 3.15556C7.27408 3.00741 7.38519 2.8963 7.53333 2.82222C7.68148 2.74815 7.83704 2.71111 8 2.71111C8.16296 2.71111 8.31852 2.74815 8.46667 2.82222C8.61482 2.8963 8.72593 3.00741 8.8 3.15556L10.2889 6.13333C10.0222 6.2963 9.76682 6.46667 9.52267 6.64445C9.27852 6.82222 9.05245 7.02222 8.84445 7.24444L8 5.55556L5.24445 11.0667C5.17037 11.2296 5.05926 11.352 4.91111 11.4338C4.76296 11.5156 4.60741 11.5561 4.44445 11.5556ZM7.71111 14.2222H1.77778C1.28889 14.2222 0.870224 14.048 0.521779 13.6996C0.173335 13.3511 -0.000591083 12.9327 1.50915e-06 12.4444V9.77778H1.77778V12.4444H7.17778C7.22222 12.7556 7.28889 13.0593 7.37778 13.3556C7.46667 13.6519 7.57778 13.9407 7.71111 14.2222ZM13.3333 16C12.1037 16 11.0554 15.5665 10.1884 14.6996C9.32148 13.8326 8.8883 12.7846 8.88889 11.5556C8.88889 10.3259 9.32237 9.27763 10.1893 8.41067C11.0563 7.5437 12.1043 7.11052 13.3333 7.11111C14.563 7.11111 15.6113 7.54459 16.4782 8.41156C17.3452 9.27852 17.7784 10.3265 17.7778 11.5556C17.7778 12.7852 17.3443 13.8335 16.4773 14.7004C15.6104 15.5674 14.5624 16.0006 13.3333 16ZM13.5111 12L15.5333 9.97778L14.9111 9.35556L12.8889 11.3778L13.5111 12Z" fill="#3582F5"/>
</svg>
