<svg width="85" height="85" viewBox="0 0 85 85" fill="none" xmlns="http://www.w3.org/2000/svg">
<path d="M11.5883 48.025C11.5883 44.7383 12.6083 41.82 14.6483 39.27C16.6883 36.72 19.295 35.0483 22.4117 34.34C23.29 30.4583 25.2733 27.285 28.3617 24.7917C31.45 22.2983 35.02 21.0517 39.0433 21.0517C41.3383 21.0517 43.435 21.42 45.2767 22.185C45.2767 22.2133 45.2767 22.2133 45.305 22.2417C47.685 23.1483 49.7817 24.6217 51.5667 26.6333H51.6517C53.5784 28.7017 54.8534 31.1667 55.5334 34.0567H56.4117C59.4717 34.0567 62.135 34.8783 64.43 36.4933V36.465C65.9317 37.485 67.2067 38.7317 68.2267 40.2333C69.2467 41.735 69.9267 43.3783 70.295 45.1633C70.4083 45.7583 70.465 46.24 70.5217 46.6367V46.8067C70.5217 46.835 70.5217 46.9767 70.55 47.2883C70.5784 47.6 70.5784 47.8267 70.5784 47.9683V48.0533C70.5784 50.5467 69.9834 52.87 68.765 54.995C67.575 57.12 65.9317 58.8483 63.835 60.1233C61.7667 61.3983 59.4717 62.0783 56.9784 62.1633C56.61 62.1633 56.4117 61.9933 56.4117 61.6817V57.885C56.4117 57.5167 56.61 57.3467 56.9784 57.3467C59.415 57.2333 61.455 56.27 63.155 54.4567C64.855 52.6433 65.705 50.5183 65.705 48.0533C65.705 45.5317 64.7983 43.3783 62.9567 41.565C62.1093 40.6887 61.0914 39.9952 59.9658 39.5274C58.8401 39.0596 57.6306 38.8274 56.4117 38.845H51.85C51.51 38.845 51.34 38.675 51.34 38.3633L51.1134 36.6917C50.83 33.8583 49.64 31.4217 47.515 29.3533C47.4867 29.325 47.4867 29.2967 47.4584 29.2683C47.43 29.24 47.4017 29.2117 47.4017 29.1833C47.3733 29.155 47.345 29.1267 47.2884 29.1267C47.2884 29.07 47.26 29.0417 47.2317 29.0417C45.2419 27.1947 42.6852 26.0761 39.9783 25.8683C39.78 25.84 39.4684 25.84 39.015 25.84C35.8983 25.84 33.2067 26.8883 30.9117 28.9567C28.6167 31.025 27.3133 33.6033 27.03 36.6633L26.8033 38.335C26.7183 38.59 26.4917 38.7317 26.18 38.7317L24.7917 38.8167C22.4117 39.1 20.4 40.12 18.8133 41.8483C17.2267 43.5767 16.4333 45.645 16.4333 48.025V48.1383H16.5183C16.5467 49.4983 16.83 50.7733 17.3683 51.9633C17.935 53.1817 18.6717 54.2017 19.635 55.0517C20.23 55.5617 20.91 56.015 21.7317 56.4117V56.44C22.865 56.9783 23.9983 57.29 25.16 57.3467C25.4717 57.3467 25.6417 57.5167 25.6417 57.8567V61.6533C25.6417 61.965 25.4717 62.135 25.16 62.135C23.6867 62.05 22.2983 61.7667 20.9667 61.285V61.3133C18.615 60.4917 16.6033 59.1317 14.9883 57.2617C13.3733 55.3917 12.2967 53.1817 11.8433 50.7167V50.6317C11.815 50.6033 11.815 50.575 11.815 50.5183C11.645 49.7817 11.5883 48.9317 11.5883 48.025ZM27.1717 68.34C27.1717 68.255 27.2 68.1417 27.2283 67.9717C27.2567 67.83 27.285 67.7167 27.285 67.6317L27.54 65.96C27.7383 65.28 28.1067 64.7983 28.7017 64.4583C29.2967 64.1183 29.92 64.0617 30.6283 64.2317C31.28 64.43 31.7333 64.8267 32.0733 65.3933C32.385 65.9883 32.4417 66.5833 32.2717 67.1783L31.875 68.8783C31.5917 70.125 30.8833 70.7483 29.7217 70.7483C29.6367 70.7483 29.495 70.72 29.325 70.6917C29.155 70.6633 29.0417 70.635 28.9283 70.635C28.3898 70.5025 27.9231 70.1677 27.625 69.7C27.3291 69.3085 27.1698 68.8307 27.1717 68.34ZM29.2683 60.01C29.2683 59.33 29.495 58.7917 29.92 58.3383C30.345 57.885 30.9117 57.6867 31.5917 57.6867C32.2717 57.6867 32.81 57.9133 33.2633 58.3383C33.7167 58.7633 33.915 59.33 33.915 60.01C33.915 60.6617 33.6883 61.2 33.2633 61.6533C32.8383 62.1067 32.2717 62.305 31.5917 62.305C30.94 62.305 30.4017 62.0783 29.9767 61.625C29.7553 61.4179 29.5783 61.1679 29.4565 60.8903C29.3348 60.6127 29.2707 60.3132 29.2683 60.01ZM33.915 76.9817C33.915 76.8683 33.9433 76.67 34.0283 76.33L34.3967 74.6583C34.595 74.0067 34.9917 73.525 35.5583 73.2133C36.1533 72.8733 36.7484 72.8167 37.3433 73.015C37.995 73.1283 38.505 73.4967 38.845 74.0633C39.185 74.63 39.27 75.2817 39.0717 75.99L38.7033 77.6617C38.42 78.8233 37.655 79.39 36.4367 79.39C36.2383 79.39 35.9833 79.3617 35.7567 79.305C35.195 79.1739 34.701 78.8412 34.3683 78.37C34.088 77.9599 33.9307 77.4782 33.915 76.9817ZM36.1534 68.7367C36.1428 68.43 36.196 68.1245 36.3094 67.8395C36.4228 67.5544 36.594 67.2959 36.8123 67.0803C37.0306 66.8647 37.2912 66.6966 37.5776 66.5867C37.8641 66.4768 38.1702 66.4274 38.4767 66.4417C39.1567 66.4417 39.695 66.6683 40.1483 67.0933C40.6017 67.5467 40.8 68.085 40.8 68.7367C40.8 69.4167 40.5733 69.955 40.1483 70.4083C39.695 70.8617 39.1567 71.06 38.4767 71.06C37.825 71.06 37.2867 70.8333 36.8333 70.38C36.6131 70.1676 36.439 69.912 36.3219 69.6293C36.2049 69.3465 36.1475 69.0426 36.1534 68.7367ZM37.91 62.305C37.91 62.0217 37.9383 61.7667 37.995 61.54L38.6467 58.99C38.845 58.3383 39.2417 57.8283 39.8083 57.4883C40.4034 57.1483 40.9983 57.0633 41.6217 57.2617C42.3017 57.46 42.7833 57.8283 43.1234 58.395C43.4634 58.9617 43.52 59.5567 43.3217 60.18L42.585 62.73C42.3583 63.5233 41.9617 64.0333 41.4233 64.3167C40.885 64.6 40.2617 64.6567 39.61 64.4867C39.3493 64.4436 39.1008 64.3455 38.881 64.1989C38.6612 64.0524 38.475 63.8607 38.335 63.6367C38.0341 63.2603 37.8827 62.7861 37.91 62.305ZM45.73 68.3683C45.73 68.2833 45.73 68.1417 45.7584 68C45.7867 67.8583 45.7867 67.745 45.7867 67.6883L46.0417 66.0167C46.24 65.3367 46.6083 64.855 47.2034 64.515C47.7984 64.175 48.4217 64.1183 49.13 64.2883C49.7817 64.4867 50.2634 64.8833 50.575 65.45C50.915 66.045 50.9717 66.64 50.7733 67.235L50.3767 68.935C50.0934 70.1817 49.385 70.805 48.2234 70.805C48.1384 70.805 47.9967 70.7767 47.8267 70.7483C47.6567 70.72 47.515 70.6917 47.43 70.6917C46.9028 70.5509 46.4478 70.2172 46.155 69.7567C45.8952 69.3387 45.7487 68.8602 45.73 68.3683ZM47.8267 60.0383C47.8267 59.3583 48.0534 58.82 48.4784 58.3667C48.9317 57.9133 49.47 57.715 50.15 57.715C50.83 57.715 51.3684 57.9417 51.8217 58.3667C52.275 58.82 52.4734 59.3583 52.4734 60.0383C52.484 60.3426 52.432 60.6458 52.3204 60.9291C52.2089 61.2124 52.0402 61.4696 51.8249 61.6849C51.6097 61.9002 51.3524 62.0689 51.0691 62.1804C50.7858 62.292 50.4826 62.344 50.1783 62.3333C49.4983 62.3333 48.96 62.1067 48.535 61.6533C48.3091 61.4498 48.1291 61.2006 48.0069 60.9221C47.8848 60.6437 47.8234 60.3424 47.8267 60.0383Z" fill="#3582F5"/>
</svg>
